# xmcd CD database file generated by grip 1.9
# 
# Track frame offsets:
#       150
#       20303
#       36824
#       53641
#       66287
#       88442
#       105268
#       117242
#       135657
#       162360
# 
# Disc length: 2342 seconds
# 
# Revision: 3
# Processed by: cddbd v1.4b41PL1 Copyright (c) Steve Scherf et al.
# Submitted via: grip 1.9
# 
DISCID=7f09240a
DTITLE=Little Sue - Crow
DYEAR=1900
DGENRE=
TTITLE0=down to you
TTITLE1=crow
TTITLE2=sweetie
TTITLE3=strong
TTITLE4=warning trains
TTITLE5=nilsson
TTITLE6=in the morning
TTITLE7=ode to lynnie mae
TTITLE8=down
TTITLE9=these days
EXTD=
EXTT0=
EXTT1=
EXTT2=
EXTT3=
EXTT4=
EXTT5=
EXTT6=
EXTT7=
EXTT8=
EXTT9=
PLAYORDER=
